<svg width="24" height="24" viewBox="0 0 24 24" fill="none" xmlns="http://www.w3.org/2000/svg">
<path fill-rule="evenodd" clip-rule="evenodd" d="M9.29299 16.707C9.10552 16.5194 9.0002 16.2651 9.0002 16C9.0002 15.7348 9.10552 15.4805 9.29299 15.293L12.586 12L9.29299 8.70697C9.19748 8.61472 9.1213 8.50438 9.06889 8.38237C9.01648 8.26037 8.98889 8.12915 8.98774 7.99637C8.98659 7.86359 9.01189 7.73191 9.06217 7.60902C9.11245 7.48612 9.1867 7.37447 9.2806 7.28057C9.37449 7.18668 9.48614 7.11243 9.60904 7.06215C9.73193 7.01187 9.86361 6.98656 9.99639 6.98772C10.1292 6.98887 10.2604 7.01646 10.3824 7.06887C10.5044 7.12128 10.6147 7.19746 10.707 7.29297L14.707 11.293C14.8945 11.4805 14.9998 11.7348 14.9998 12C14.9998 12.2651 14.8945 12.5194 14.707 12.707L10.707 16.707C10.5195 16.8944 10.2652 16.9998 9.99999 16.9998C9.73483 16.9998 9.48052 16.8944 9.29299 16.707Z" fill="black"/>
</svg>
