<svg width="24" height="24" viewBox="0 0 24 24" fill="none" xmlns="http://www.w3.org/2000/svg">
<path fill-rule="evenodd" clip-rule="evenodd" d="M7.293 9.29302C7.48053 9.10555 7.73484 9.00023 8 9.00023C8.26516 9.00023 8.51947 9.10555 8.707 9.29302L12 12.586L15.293 9.29302C15.3852 9.19751 15.4956 9.12133 15.6176 9.06892C15.7396 9.01651 15.8708 8.98892 16.0036 8.98777C16.1364 8.98662 16.2681 9.01192 16.391 9.0622C16.5138 9.11248 16.6255 9.18673 16.7194 9.28063C16.8133 9.37452 16.8875 9.48617 16.9378 9.60907C16.9881 9.73196 17.0134 9.86364 17.0123 9.99642C17.0111 10.1292 16.9835 10.2604 16.9311 10.3824C16.8787 10.5044 16.8025 10.6148 16.707 10.707L12.707 14.707C12.5195 14.8945 12.2652 14.9998 12 14.9998C11.7348 14.9998 11.4805 14.8945 11.293 14.707L7.293 10.707C7.10553 10.5195 7.00021 10.2652 7.00021 10C7.00021 9.73486 7.10553 9.48055 7.293 9.29302Z" fill="black"/>
</svg>
