<svg width="31" height="31" viewBox="0 0 31 31" fill="none" xmlns="http://www.w3.org/2000/svg">
<path d="M14.2084 28.4167C13.4979 28.4167 12.89 28.1639 12.3845 27.6585C11.879 27.153 11.6259 26.5446 11.625 25.8333V20.6667H7.75002C7.0396 20.6667 6.43166 20.4139 5.92619 19.9085C5.42071 19.403 5.16755 18.7946 5.16669 18.0833V9.04167C5.16669 7.62083 5.67259 6.40451 6.6844 5.39271C7.6962 4.3809 8.91252 3.875 10.3334 3.875H25.8334V18.0833C25.8334 18.7938 25.5806 19.4021 25.0751 19.9085C24.5697 20.4148 23.9613 20.6675 23.25 20.6667H19.375V25.8333C19.375 26.5438 19.1223 27.1521 18.6168 27.6585C18.1113 28.1648 17.503 28.4175 16.7917 28.4167H14.2084ZM7.75002 12.9167H23.25V6.45833H21.9584V11.625H19.375V6.45833H18.0834V9.04167H15.5V6.45833H10.3334C9.62294 6.45833 9.01499 6.7115 8.50952 7.21783C8.00405 7.72417 7.75088 8.33211 7.75002 9.04167V12.9167Z" fill="black"/>
</svg>
