<svg width="28" height="28" viewBox="0 0 28 28" fill="none" xmlns="http://www.w3.org/2000/svg">
<path d="M15.75 2.33335C15.75 2.85135 15.5248 3.31685 15.1667 3.63769V5.83335H21C21.9283 5.83335 22.8185 6.2021 23.4749 6.85848C24.1313 7.51486 24.5 8.4051 24.5 9.33335V21C24.5 21.9283 24.1313 22.8185 23.4749 23.4749C22.8185 24.1313 21.9283 24.5 21 24.5H7C6.07174 24.5 5.1815 24.1313 4.52513 23.4749C3.86875 22.8185 3.5 21.9283 3.5 21V9.33335C3.5 8.4051 3.86875 7.51486 4.52513 6.85848C5.1815 6.2021 6.07174 5.83335 7 5.83335H12.8333V3.63769C12.6158 3.44308 12.4503 3.19713 12.3521 2.92225C12.2538 2.64736 12.2259 2.35227 12.2709 2.06384C12.3158 1.7754 12.4322 1.5028 12.6094 1.27084C12.7867 1.03889 13.0191 0.854951 13.2856 0.735781C13.5521 0.616611 13.8441 0.565995 14.1352 0.588541C14.4262 0.611087 14.707 0.706079 14.9519 0.864868C15.1969 1.02366 15.3982 1.2412 15.5376 1.49768C15.677 1.75416 15.75 2.04144 15.75 2.33335ZM7 8.16669C6.69058 8.16669 6.39383 8.2896 6.17504 8.5084C5.95625 8.72719 5.83333 9.02393 5.83333 9.33335V21C5.83333 21.3094 5.95625 21.6062 6.17504 21.825C6.39383 22.0438 6.69058 22.1667 7 22.1667H21C21.3094 22.1667 21.6062 22.0438 21.825 21.825C22.0438 21.6062 22.1667 21.3094 22.1667 21V9.33335C22.1667 9.02393 22.0438 8.72719 21.825 8.5084C21.6062 8.2896 21.3094 8.16669 21 8.16669H7ZM2.33333 11.6667H0V18.6667H2.33333V11.6667ZM25.6667 11.6667H28V18.6667H25.6667V11.6667ZM10.5 16.9167C10.9641 16.9167 11.4092 16.7323 11.7374 16.4041C12.0656 16.0759 12.25 15.6308 12.25 15.1667C12.25 14.7026 12.0656 14.2574 11.7374 13.9292C11.4092 13.6011 10.9641 13.4167 10.5 13.4167C10.0359 13.4167 9.59075 13.6011 9.26256 13.9292C8.93437 14.2574 8.75 14.7026 8.75 15.1667C8.75 15.6308 8.93437 16.0759 9.26256 16.4041C9.59075 16.7323 10.0359 16.9167 10.5 16.9167ZM17.5 16.9167C17.9641 16.9167 18.4092 16.7323 18.7374 16.4041C19.0656 16.0759 19.25 15.6308 19.25 15.1667C19.25 14.7026 19.0656 14.2574 18.7374 13.9292C18.4092 13.6011 17.9641 13.4167 17.5 13.4167C17.0359 13.4167 16.5908 13.6011 16.2626 13.9292C15.9344 14.2574 15.75 14.7026 15.75 15.1667C15.75 15.6308 15.9344 16.0759 16.2626 16.4041C16.5908 16.7323 17.0359 16.9167 17.5 16.9167Z" fill="black"/>
</svg>
