<svg width="28" height="28" viewBox="0 0 28 28" fill="none" xmlns="http://www.w3.org/2000/svg">
<path d="M24.5 8.16667V22.1667C24.5 22.8083 24.2717 23.3578 23.8152 23.8152C23.3586 24.2725 22.8091 24.5008 22.1667 24.5H5.83333C5.19167 24.5 4.64256 24.2717 4.186 23.8152C3.72944 23.3586 3.50078 22.8091 3.5 22.1667V5.83333C3.5 5.19167 3.72867 4.64256 4.186 4.186C4.64333 3.72944 5.19244 3.50078 5.83333 3.5H19.8333L24.5 8.16667ZM14 21C14.9722 21 15.7986 20.6597 16.4792 19.9792C17.1597 19.2986 17.5 18.4722 17.5 17.5C17.5 16.5278 17.1597 15.7014 16.4792 15.0208C15.7986 14.3403 14.9722 14 14 14C13.0278 14 12.2014 14.3403 11.5208 15.0208C10.8403 15.7014 10.5 16.5278 10.5 17.5C10.5 18.4722 10.8403 19.2986 11.5208 19.9792C12.2014 20.6597 13.0278 21 14 21ZM7 11.6667H17.5V7H7V11.6667Z" fill="black"/>
</svg>
