<svg width="28" height="28" viewBox="0 0 28 28" fill="none" xmlns="http://www.w3.org/2000/svg">
<path d="M25.9 20.5723L16.3351 3.96151C16.0961 3.55456 15.7549 3.21713 15.3453 2.98267C14.9357 2.74822 14.4719 2.62488 14 2.62488C13.528 2.62488 13.0642 2.74822 12.6546 2.98267C12.245 3.21713 11.9038 3.55456 11.6648 3.96151L2.09995 20.5723C1.86998 20.9659 1.74878 21.4136 1.74878 21.8695C1.74878 22.3254 1.86998 22.773 2.09995 23.1667C2.33591 23.5761 2.67654 23.9154 3.08691 24.1497C3.49728 24.384 3.96259 24.5049 4.43511 24.4999H23.5648C24.0369 24.5045 24.5018 24.3834 24.9118 24.1491C25.3217 23.9148 25.662 23.5758 25.8978 23.1667C26.1281 22.7732 26.2496 22.3257 26.25 21.8698C26.2504 21.4139 26.1296 20.9661 25.9 20.5723ZM13.125 11.3749C13.125 11.1429 13.2171 10.9203 13.3812 10.7562C13.5453 10.5921 13.7679 10.4999 14 10.4999C14.232 10.4999 14.4546 10.5921 14.6187 10.7562C14.7828 10.9203 14.875 11.1429 14.875 11.3749V15.7499C14.875 15.982 14.7828 16.2046 14.6187 16.3687C14.4546 16.5328 14.232 16.6249 14 16.6249C13.7679 16.6249 13.5453 16.5328 13.3812 16.3687C13.2171 16.2046 13.125 15.982 13.125 15.7499V11.3749ZM14 20.9999C13.7404 20.9999 13.4866 20.923 13.2708 20.7788C13.0549 20.6345 12.8867 20.4295 12.7874 20.1897C12.688 19.9499 12.662 19.686 12.7127 19.4314C12.7633 19.1768 12.8883 18.9429 13.0719 18.7594C13.2554 18.5758 13.4893 18.4508 13.7439 18.4002C13.9985 18.3495 14.2624 18.3755 14.5022 18.4749C14.7421 18.5742 14.947 18.7424 15.0913 18.9583C15.2355 19.1741 15.3125 19.4279 15.3125 19.6874C15.3125 20.0355 15.1742 20.3694 14.928 20.6155C14.6819 20.8617 14.348 20.9999 14 20.9999Z" fill="#F44336"/>
</svg>
